HIERARCHY
ROOT Hips
{
	OFFSET 0.000000 0.000000 0.000000
	CHANNELS 6 Xposition Yposition Zposition Xrotation Yrotation Zrotation
	JOINT LeftUpLeg_virtual
	{
		OFFSET 0.000000 0.000000 0.000000
		CHANNELS 3 Xrotation Yrotation Zrotation
		JOINT LeftUpLeg
		{
			OFFSET 15.427100 -6.655098 0.678600
			CHANNELS 3 Xrotation Yrotation Zrotation
			JOINT LeftLeg
			{
				OFFSET 4.081073 -39.591068 13.024000
				CHANNELS 3 Xrotation Yrotation Zrotation
				JOINT LeftFoot
				{
					OFFSET -4.081074 -37.707932 -15.979700
					CHANNELS 3 Xrotation Yrotation Zrotation
					JOINT LeftToeBase
					{
						OFFSET 5.346399 -15.068900 20.645000
						CHANNELS 3 Xrotation Yrotation Zrotation
						JOINT LeftToe_End
						{
							OFFSET 2.754700 0.931300 11.300900
							CHANNELS 3 Xrotation Yrotation Zrotation
							End Site
							{
								OFFSET 0 0 0
							}
						}
					}
				}
			}
		}
	}
	JOINT RightUpLeg_virtual
	{
		OFFSET 0.000000 0.000000 0.000000
		CHANNELS 3 Xrotation Yrotation Zrotation
		JOINT RightUpLeg
		{
			OFFSET -15.569500 -6.655098 0.678600
			CHANNELS 3 Xrotation Yrotation Zrotation
			JOINT RightLeg
			{
				OFFSET -4.081825 -39.591045 13.023800
				CHANNELS 3 Xrotation Yrotation Zrotation
				JOINT RightFoot
				{
					OFFSET 4.081824 -37.707954 -15.979600
					CHANNELS 3 Xrotation Yrotation Zrotation
					JOINT RightToeBase
					{
						OFFSET -5.346400 -15.068900 20.645000
						CHANNELS 3 Xrotation Yrotation Zrotation
						JOINT RightToe_End
						{
							OFFSET -2.754700 0.931300 11.300900
							CHANNELS 3 Xrotation Yrotation Zrotation
							End Site
							{
								OFFSET 0 0 0
							}
						}
					}
				}
			}
		}
	}
	JOINT Spine_virtual
	{
		OFFSET 0.000000 0.000000 0.000000
		CHANNELS 3 Xrotation Yrotation Zrotation
		JOINT Spine
		{
			OFFSET -0.279200 12.230698 -2.892100
			CHANNELS 3 Xrotation Yrotation Zrotation
			JOINT Spine1
			{
				OFFSET -0.232667 10.192268 -1.242267
				CHANNELS 3 Xrotation Yrotation Zrotation
				JOINT Spine1_split
				{
					OFFSET -0.232667 10.192268 -1.242267
					CHANNELS 3 Xrotation Yrotation Zrotation
					JOINT Spine2
					{
						OFFSET -0.232667 10.192268 -1.242267
						CHANNELS 3 Xrotation Yrotation Zrotation
						JOINT Neck_virtual
						{
							OFFSET 0.000000 0.000000 0.000000
							CHANNELS 3 Xrotation Yrotation Zrotation
							JOINT Neck
							{
								OFFSET -0.418800 17.814194 8.416900
								CHANNELS 3 Xrotation Yrotation Zrotation
								JOINT Head
								{
									OFFSET 0.000000 7.031097 3.806800
									CHANNELS 3 Xrotation Yrotation Zrotation
									JOINT HeadTop_End
									{
										OFFSET 0.000000 24.646606 12.978600
										CHANNELS 3 Xrotation Yrotation Zrotation
										End Site
										{
											OFFSET 0 0 0
										}
									}
								}
							}
						}
						JOINT LeftShoulder_virtual
						{
							OFFSET 0.000000 0.000000 0.000000
							CHANNELS 3 Xrotation Yrotation Zrotation
							JOINT LeftShoulder
							{
								OFFSET 8.476499 7.247704 -3.868750
								CHANNELS 3 Xrotation Yrotation Zrotation
								JOINT LeftShoulder_split
								{
									OFFSET 8.476499 7.247704 -3.868750
									CHANNELS 3 Xrotation Yrotation Zrotation
									JOINT LeftArm
									{
										OFFSET 9.308998 -2.777710 0.208600
										CHANNELS 3 Xrotation Yrotation Zrotation
										JOINT LeftForeArm
										{
											OFFSET 29.972298 0.000000 0.000000
											CHANNELS 3 Xrotation Yrotation Zrotation
											JOINT LeftHand
											{
												OFFSET 26.026505 0.000000 0.000000
												CHANNELS 3 Xrotation Yrotation Zrotation
												End Site
												{
													OFFSET 0 0 0
												}
											}
										}
									}
								}
							}
						}
						JOINT RightShoulder_virtual
						{
							OFFSET 0.000000 0.000000 0.000000
							CHANNELS 3 Xrotation Yrotation Zrotation
							JOINT RightShoulder
							{
								OFFSET -7.570500 7.247704 -3.868750
								CHANNELS 3 Xrotation Yrotation Zrotation
								JOINT RightShoulder_split
								{
									OFFSET -7.570500 7.247704 -3.868750
									CHANNELS 3 Xrotation Yrotation Zrotation
									JOINT RightArm
									{
										OFFSET -9.308998 -2.777710 0.208500
										CHANNELS 3 Xrotation Yrotation Zrotation
										JOINT RightForeArm
										{
											OFFSET -29.972300 0.000000 0.000000
											CHANNELS 3 Xrotation Yrotation Zrotation
											JOINT RightHand
											{
												OFFSET -26.026505 0.000000 0.000000
												CHANNELS 3 Xrotation Yrotation Zrotation
												End Site
												{
													OFFSET 0 0 0
												}
											}
										}
									}
								}
							}
						}
					}
				}
			}
		}
	}
}
MOTION
Frames: 6
Frame Time: 0.03333333
-3.550960 89.464157 -3.481255 0.000000 0.000000 0.000000 -0.853463 -43.774839 3.850684 -18.525853 8.361290 11.340143 14.391367 -5.711924 5.834186 1.711938 -3.549349 -20.486878 -1.682967 1.432606 1.506243 0.000000 0.000000 0.000000 -2.087751 -42.973088 3.939477 -5.395600 -9.240112 -20.000631 19.101442 -10.586663 -13.910333 -8.233509 -6.783444 23.336730 -4.345879 -0.426176 0.089678 0.000000 0.000000 0.000000 -1.225334 -45.447720 3.415983 7.308209 3.498732 -0.684011 0.212879 2.387504 -1.498952 1.133136 -1.619755 1.046466 0.000000 0.000000 0.000000 -0.662027 2.051933 -1.426498 -17.087486 -1.995053 19.232518 -1.629671 18.237688 -17.021098 0.000000 0.000000 0.000000 -0.228697 1.789241 -1.298427 -7.449779 -7.384778 -13.865674 -5.879676 -2.236350 -3.046901 4.477547 -4.541193 -30.078606 43.857574 -38.803138 17.352497 0.000000 0.000000 0.000000 -0.782844 1.739675 -1.086228 -1.927289 14.160530 -18.948695 -5.446357 3.266987 0.052441 -73.296228 10.914555 18.425888 -76.036104 34.107813 55.848797 0.000000 0.000000 0.000000 
-2.273252 88.876831 -3.603539 0.000000 0.000000 0.000000 -1.144169 -46.006153 3.880094 -19.562883 8.397017 11.791649 16.181903 -4.706992 4.830431 0.529246 -2.908669 -19.417707 -1.154890 1.459794 1.370570 0.000000 0.000000 0.000000 -2.060032 -45.051832 4.029341 -7.539133 -8.683803 -21.034155 20.062282 -9.661691 -14.063772 -7.968526 -6.665737 23.519184 -3.427304 -0.513473 0.032119 0.000000 0.000000 0.000000 -1.689329 -47.681363 3.211082 7.798713 3.679971 -0.364779 0.925892 2.405233 -1.246766 1.015747 -1.538298 1.158756 0.000000 0.000000 0.000000 -0.098010 2.071015 -1.205554 -17.417870 1.625260 19.205565 0.183157 21.457871 -16.604909 0.000000 0.000000 0.000000 0.475961 1.766004 -1.144470 -7.077082 -6.950904 -13.186061 -6.087048 -2.522606 -3.815858 3.921915 -3.325619 -30.488578 44.085333 -39.954824 18.123965 0.000000 0.000000 0.000000 -0.202919 1.751235 -0.846538 -2.784178 14.473111 -13.043329 -4.653628 3.773468 0.192146 -65.826843 12.618661 19.086270 -78.891410 40.981668 60.777100 0.000000 0.000000 0.000000 
-1.111758 88.199585 -3.729351 0.000000 0.000000 0.000000 -1.323797 -48.363822 3.942372 -20.881878 8.426312 12.479041 18.430022 -3.773600 3.839269 -0.594362 -2.349822 -18.507128 -0.592452 1.513244 1.159921 0.000000 0.000000 0.000000 -2.056498 -47.153270 4.108782 -9.844548 -8.105612 -21.999717 21.492020 -8.571658 -14.127689 -7.785652 -6.213301 23.952034 -2.595803 -0.556363 -0.113420 0.000000 0.000000 0.000000 -1.938997 -49.849873 3.124944 8.272257 3.831255 -0.100555 1.684166 2.434761 -1.098937 1.058494 -1.570388 1.168659 0.000000 0.000000 0.000000 0.507457 2.100833 -1.090361 -18.083383 4.998702 18.836362 1.555673 23.758815 -15.899328 0.000000 0.000000 0.000000 1.236808 1.758175 -1.066455 -6.749804 -6.673623 -12.458398 -6.373788 -2.790836 -4.721376 3.244496 -3.112017 -30.699446 43.182693 -40.021039 17.897560 0.000000 0.000000 0.000000 0.461337 1.768098 -0.705350 -3.723504 14.824500 -7.104642 -3.720194 4.536111 0.505005 -57.444801 13.723342 19.214080 -81.713023 48.032950 64.478550 0.000000 0.000000 0.000000 
-0.074664 87.450172 -3.790867 0.000000 0.000000 0.000000 -1.386439 -50.591006 4.007321 -22.469584 8.331714 13.311074 20.967627 -3.014666 2.896188 -1.612320 -1.989276 -17.929392 -0.010802 1.578832 0.892948 0.000000 0.000000 0.000000 -2.053925 -49.077518 4.179469 -12.186908 -7.513278 -22.752429 23.233758 -7.413751 -14.121967 -7.884090 -5.572722 24.345810 -1.685871 -0.550281 -0.312786 0.000000 0.000000 0.000000 -1.970137 -51.822544 3.151702 8.704490 3.910766 0.094632 2.430866 2.460485 -1.038393 1.071037 -1.634157 1.141817 0.000000 0.000000 0.000000 1.119943 2.119670 -1.050656 -18.996105 8.129342 18.200511 2.608562 25.297421 -15.049222 0.000000 0.000000 0.000000 1.985120 1.745154 -1.041877 -6.478566 -6.609839 -11.693851 -6.717981 -2.964786 -5.619505 2.399680 -3.647297 -30.697626 41.283473 -39.190987 16.796216 0.000000 0.000000 0.000000 1.167406 1.787842 -0.643302 -4.651168 15.234010 -1.444181 -3.022535 4.872982 0.800099 -48.932776 14.421388 19.097904 -82.947101 54.884255 65.522039 0.000000 0.000000 0.000000 
0.812553 86.646233 -3.842403 0.000000 0.000000 0.000000 -1.346426 -52.440041 4.090932 -24.227767 8.049539 14.145948 23.556621 -2.495860 2.050830 -2.542422 -1.876730 -17.614030 0.432190 1.620128 0.736487 0.000000 0.000000 0.000000 -2.018536 -50.719509 4.244711 -14.454828 -6.888361 -23.250731 25.156353 -6.388143 -14.033419 -8.282460 -4.948367 24.335776 -0.671321 -0.503887 -0.500498 0.000000 0.000000 0.000000 -1.766335 -53.521034 3.341783 9.077668 3.900373 0.213112 3.097524 2.467550 -1.033218 1.130222 -1.673455 1.074562 0.000000 0.000000 0.000000 1.702054 2.110812 -1.053478 -20.007420 11.030229 17.401420 3.470108 26.276001 -14.236244 0.000000 0.000000 0.000000 2.661244 1.714459 -1.035297 -6.284461 -6.796023 -10.926424 -6.889995 -3.038204 -6.439802 1.362551 -4.639690 -30.498441 38.747680 -37.857952 15.146733 0.000000 0.000000 0.000000 1.833694 1.805647 -0.627911 -5.506421 15.678674 3.568771 -2.306309 5.035576 1.253978 -41.064562 14.945140 18.917437 -80.893100 61.160587 62.401039 0.000000 0.000000 0.000000 
1.500530 85.833931 -3.825336 0.000000 0.000000 0.000000 -1.214707 -53.845892 4.240891 -26.019881 7.599762 14.898809 26.074905 -2.223710 1.336528 -3.335973 -1.995384 -17.512067 0.800876 1.630391 0.694900 0.000000 0.000000 0.000000 -1.969071 -52.079301 4.358177 -16.601536 -6.243864 -23.612507 27.155717 -5.581291 -13.868376 -8.854825 -4.469002 23.878183 0.282195 -0.435358 -0.643503 0.000000 0.000000 0.000000 -1.420751 -54.882663 3.675322 9.386609 3.802733 0.236416 3.630216 2.443737 -1.063679 0.999275 -1.610518 0.922210 0.000000 0.000000 0.000000 2.251204 2.058758 -1.079018 -20.944406 13.701990 16.563907 4.292741 26.913163 -13.593888 0.000000 0.000000 0.000000 3.222663 1.659718 -1.027324 -6.164681 -7.232323 -10.162961 -6.851947 -3.018051 -7.113361 0.128563 -5.741421 -30.118218 35.900584 -36.498960 13.293263 0.000000 0.000000 0.000000 2.413087 1.798333 -0.650972 -6.225847 16.113874 7.633261 -1.603569 4.727115 1.780816 -34.289418 15.396925 18.890418 -73.719570 66.387014 53.583230 0.000000 0.000000 0.000000 
